# File created by Blade
# Date/Time:  Tue Jan 27 17:27:44 2015
#---------------------------------------------------------
:version 1.10
:name HOM
:units
  mass 1.0
  length 1.000000
  angle deg
:documentation
     Acclaim Skeleton File
:root
   axis xyz
   order TX TY TZ RX RY RZ
   position 0.000000 0.000000 0.000000
   orientation 0 0 0
:bonedata
   begin
      id 1
      name Spine_dum
      direction 0.000000 1.000000 0.000000
      length 7.539951
      axis 0.0 0.0 0.0 xyz
   end
   begin
      id 2
      name LeftUpLeg_dum
      direction 1.000000 0.000000 0.000000
      length 3.345476
      axis 0.0 0.0 0.0 xyz
   end
   begin
      id 3
      name RightUpLeg_dum
      direction -1.000000 0.000000 0.000000
      length 3.345476
      axis 0.0 0.0 0.0 xyz
   end
   begin
      id 4
      name Spine
      direction 0.000000 1.000000 0.000000
      length 0.000000
      axis 0.0 0.0 0.0 xyz
      dof rx ry rz
   end
   begin
      id 5
      name Spine_dum1
      direction 0.000000 1.000000 0.000000
      length 15.093809
      axis 0.0 0.0 0.0 xyz
   end
   begin
      id 6
      name Spine_dum2
      direction 0.000000 1.000000 0.000000
      length 9.738928
      axis 0.0 0.0 0.0 xyz
   end
   begin
      id 7
      name Spine_dum3
      direction 0.000000 1.000000 0.000000
      length 9.738928
      axis 0.0 0.0 0.0 xyz
   end
   begin
      id 8
      name Head
      direction 0.000000 1.000000 0.000000
      length 4.527550
      axis 0.0 0.0 0.0 xyz
      dof rx ry rz
   end
   begin
      id 9
      name LeftShoulder
      direction 1.000000 0.000000 0.000000
      length 7.084015
      axis 0.0 0.0 -90.0 xyz
      dof rx ry rz
   end
   begin
      id 10
      name LeftArm
      direction 1.000000 0.000000 0.000000
      length 10.259319
      axis 0.0 0.0 -90.0 xyz
      dof rx ry rz
   end
   begin
      id 11
      name LeftForeArm
      direction 1.000000 0.000000 0.000000
      length 9.896984
      axis 0.0 0.0 -90.0 xyz
      dof ry rz rx
   end
   begin
      id 12
      name LeftHand
      direction 0.000000 0.000000 0.000000
      length 0.000000
      axis 0.0 0.0 -90.0 xyz
      dof rx ry rz
   end
   begin
      id 13
      name LeftHand_dum1
      direction 0.000000 0.000000 0.000000
      length 0.000000
      axis 0.0 0.0 -90.0 xyz
   end
   begin
      id 14
      name LeftHand_dum2
      direction 1.000000 0.000000 0.000000
      length 3.937000
      axis 0.0 0.0 -90.0 xyz
   end
   begin
      id 15
      name LeftHandThumb1
      direction 0.000000 0.000000 1.000000
      length 3.937000
      axis 0.0 0.0 -90.0 xyz
      dof rx rz ry
   end
   begin
      id 16
      name RightShoulder
      direction -1.000000 0.000000 0.000000
      length 7.084015
      axis 0.0 0.0 90.0 xyz
      dof rx ry rz
   end
   begin
      id 17
      name RightArm
      direction -1.000000 0.000000 0.000000
      length 10.259319
      axis 0.0 0.0 90.0 xyz
      dof rx ry rz
   end
   begin
      id 18
      name RightForeArm
      direction -1.000000 0.000000 0.000000
      length 9.896984
      axis 0.0 0.0 90.0 xyz
      dof ry rz rx
   end
   begin
      id 19
      name RightHand
      direction 0.000000 0.000000 0.000000
      length 0.000000
      axis 0.0 0.0 90.0 xyz
      dof rx ry rz
   end
   begin
      id 20
      name RightHand_dum1
      direction 0.000000 0.000000 0.000000
      length 0.000000
      axis 0.0 0.0 90.0 xyz
   end
   begin
      id 21
      name RightHand_dum2
      direction -1.000000 0.000000 0.000000
      length 3.937000
      axis 0.0 0.0 90.0 xyz
   end
   begin
      id 22
      name RightHandThumb1
      direction 0.000000 0.000000 1.000000
      length 3.937000
      axis 0.0 0.0 90.0 xyz
      dof rx rz ry
   end
   begin
      id 23
      name LeftUpLeg
      direction 0.000000 -1.000000 0.000000
      length 19.114733
      axis 0.0 0.0 0.0 xyz
      dof rx ry rz
   end
   begin
      id 24
      name LeftLeg
      direction 0.000000 -1.000000 0.000000
      length 16.045604
      axis 0.0 0.0 0.0 xyz
      dof rx ry rz
   end
   begin
      id 25
      name LeftFoot
      direction 0.000000 -0.258819 0.965926
      length 5.543155
      axis 15.0 0.0 0.0 xyz
      dof rx ry rz
   end
   begin
      id 26
      name LeftToeBase
      direction 0.000000 0.000000 1.000000
      length 2.952750
      axis 0.0 0.0 0.0 xyz
      dof rx ry rz
   end
   begin
      id 27
      name RightUpLeg
      direction 0.000000 -1.000000 0.000000
      length 19.114733
      axis 0.0 0.0 0.0 xyz
      dof rx ry rz
   end
   begin
      id 28
      name RightLeg
      direction 0.000000 -1.000000 0.000000
      length 16.045604
      axis 0.0 0.0 0.0 xyz
      dof rx ry rz
   end
   begin
      id 29
      name RightFoot
      direction 0.000000 -0.258819 0.965926
      length 5.543155
      axis 15.0 0.0 0.0 xyz
      dof rx ry rz
   end
   begin
      id 30
      name RightToeBase
      direction 0.000000 0.000000 1.000000
      length 2.952750
      axis 0.0 0.0 0.0 xyz
      dof rx ry rz
   end
:hierarchy
   begin
      root Spine_dum LeftUpLeg_dum RightUpLeg_dum
      Spine_dum Spine
      LeftUpLeg_dum LeftUpLeg
      RightUpLeg_dum RightUpLeg
      Spine Spine_dum1 Spine_dum2 Spine_dum3
      Spine_dum1 Head
      Spine_dum2 LeftShoulder
      Spine_dum3 RightShoulder
      LeftShoulder LeftArm
      LeftArm LeftForeArm
      LeftForeArm LeftHand
      LeftHand LeftHand_dum1 LeftHand_dum2
      LeftHand_dum1 LeftHandThumb1
      RightShoulder RightArm
      RightArm RightForeArm
      RightForeArm RightHand
      RightHand RightHand_dum1 RightHand_dum2
      RightHand_dum1 RightHandThumb1
      LeftUpLeg LeftLeg
      LeftLeg LeftFoot
      LeftFoot LeftToeBase
      RightUpLeg RightLeg
      RightLeg RightFoot
      RightFoot RightToeBase
   end

# File created by Blade
# Date/Time:  Tue Jan 27 17:27:32 2015
# Frame Rate: 120.000 fps
#------------------------------------------------------
:FULLY-SPECIFIED
:DEGREES
429
root 4.787204 36.887783 0.393852 3.267903 30.182113 0.130137
Spine 3.703899 5.192581 0.848453
Head 11.602191 -10.732194 4.623870
LeftShoulder -5.106919 -9.564768 8.989467
LeftArm 3.154716 -11.218158 -51.462601
LeftForeArm 2.168724 0.000000 98.568905
LeftHand -14.297921 -0.000000 33.100118
LeftHandThumb1 -26.253704 0.000000 33.147579
RightShoulder -9.694596 -19.978632 0.961161
RightArm 16.866402 -26.302980 57.777134
RightForeArm 183.753424 0.000000 30.660038
RightHand 0.821353 0.000000 0.089018
RightHandThumb1 -24.326973 -0.000000 -32.862282
LeftUpLeg -3.659147 -10.280230 -3.339601
LeftLeg 6.653090 -0.000000 -0.000000
LeftFoot -11.042135 -10.570104 -11.632371
LeftToeBase 14.472495 -0.000000 -0.000000
RightUpLeg -20.153983 11.307384 -5.975892
RightLeg 95.403580 -0.000000 -0.000000
RightFoot -4.732741 2.921132 4.655206
RightToeBase -1.105631 -0.000000 0.000000
430
root 4.789540 36.890306 0.402873 3.259693 30.188434 0.105866
Spine 3.728009 5.250760 0.834115
Head 11.547940 -10.665820 4.675350
LeftShoulder -5.137888 -9.567350 8.980365
LeftArm 3.127527 -11.146221 -51.413591
LeftForeArm 2.222745 -0.000000 98.716682
LeftHand -14.391014 -0.000000 33.331689
LeftHandThumb1 -26.253704 0.000000 33.147579
RightShoulder -9.633637 -19.926968 0.947852
RightArm 16.932174 -26.315127 57.735406
RightForeArm 183.915980 0.000000 30.869246
RightHand 0.843452 0.000000 0.363956
RightHandThumb1 -24.326973 -0.000000 -32.862282
LeftUpLeg -3.661635 -10.296827 -3.316670
LeftLeg 6.678277 -0.000000 -0.000000
LeftFoot -11.055067 -10.554674 -11.613879
LeftToeBase 14.443353 -0.000000 -0.000000
RightUpLeg -20.169935 11.407018 -5.973659
RightLeg 95.450949 -0.000000 -0.000000
RightFoot -4.715009 2.905486 4.685396
RightToeBase -1.265499 -0.000000 0.000000
431
root 4.792464 36.892868 0.414077 3.303153 30.228688 0.054362
Spine 3.643130 5.298522 0.850087
Head 11.527688 -10.659045 4.675670
LeftShoulder -5.162494 -9.520346 8.957889
LeftArm 3.093662 -11.077399 -51.340116
LeftForeArm 2.099079 -0.000000 98.871171
LeftHand -14.267116 -0.000000 33.269355
LeftHandThumb1 -26.253704 0.000000 33.147579
RightShoulder -9.643512 -19.913686 0.936668
RightArm 17.035825 -26.352438 57.686644
RightForeArm 184.022728 -0.000000 31.019991
RightHand 0.797886 -0.000000 0.576369
RightHandThumb1 -24.326973 -0.000000 -32.862282
LeftUpLeg -3.735372 -10.323306 -3.254769
LeftLeg 6.720497 -0.000000 -0.000000
LeftFoot -11.079341 -10.574065 -11.599393
LeftToeBase 14.423608 -0.000000 -0.000000
RightUpLeg -20.233333 11.470607 -5.952482
RightLeg 95.483848 -0.000000 -0.000000
RightFoot -4.737733 2.854896 4.684185
RightToeBase -1.131705 -0.000000 0.000000
432
root 4.795727 36.895559 0.425408 3.303209 30.258806 0.026629
Spine 3.630590 5.337618 0.830650
Head 11.506104 -10.665278 4.735705
LeftShoulder -5.170081 -9.485523 8.954227
LeftArm 3.073271 -11.072561 -51.316293
LeftForeArm 2.112704 -0.000000 99.007963
LeftHand -14.316040 -0.000000 33.223774
LeftHandThumb1 -26.253704 0.000000 33.147579
RightShoulder -9.629253 -19.902133 0.948883
RightArm 17.126329 -26.360646 57.626068
RightForeArm 184.128227 -0.000000 31.214167
RightHand 0.698334 -0.000000 0.728257
RightHandThumb1 -24.326973 -0.000000 -32.862282
LeftUpLeg -3.746460 -10.341573 -3.225142
LeftLeg 6.749190 -0.000000 -0.000000
LeftFoot -11.090579 -10.589335 -11.566917
LeftToeBase 14.379110 -0.000000 -0.000000
RightUpLeg -20.234734 11.536163 -5.941223
RightLeg 95.512290 -0.000000 -0.000000
RightFoot -4.763573 2.808401 4.728966
RightToeBase -1.114766 -0.000000 0.000000
433
root 4.800045 36.898658 0.439847 3.310022 30.302146 -0.014225
Spine 3.586975 5.344666 0.818236
Head 11.523353 -10.649888 4.797062
LeftShoulder -5.186439 -9.427996 8.951439
LeftArm 3.050827 -11.065282 -51.287259
LeftForeArm 2.098568 -0.000000 99.138569
LeftHand -14.265912 -0.000000 33.206875
LeftHandThumb1 -26.253704 0.000000 33.147579
RightShoulder -9.606319 -19.914265 0.964055
RightArm 17.260220 -26.429749 57.513764
RightForeArm 184.198216 -0.000000 31.360745
RightHand 0.613324 0.000000 0.816762
RightHandThumb1 -24.326973 -0.000000 -32.862282
LeftUpLeg -3.763863 -10.357112 -3.180626
LeftLeg 6.773643 -0.000000 -0.000000
LeftFoot -11.105601 -10.612849 -11.531091
LeftToeBase 14.332191 -0.000000 -0.000000
RightUpLeg -20.236472 11.584258 -5.920348
RightLeg 95.518352 -0.000000 -0.000000
RightFoot -4.771074 2.707009 4.671051
RightToeBase -1.136417 -0.000000 0.000000
434
root 4.803496 36.900489 0.454420 3.308988 30.349421 -0.041456
Spine 3.573336 5.344850 0.790975
Head 11.478408 -10.635426 4.860697
LeftShoulder -5.218253 -9.390037 8.978263
LeftArm 3.046295 -11.045319 -51.289096
LeftForeArm 2.128654 -0.000000 99.231082
LeftHand -14.232425 0.000000 33.214034
LeftHandThumb1 -26.253704 0.000000 33.147579
RightShoulder -9.568077 -19.851536 0.950771
RightArm 17.274373 -26.471981 57.510834
RightForeArm 184.221357 -0.000000 31.557700
RightHand 0.673674 -0.000000 1.117162
RightHandThumb1 -24.326973 -0.000000 -32.862282
LeftUpLeg -3.772240 -10.363122 -3.148212
LeftLeg 6.808697 -0.000000 -0.000000
LeftFoot -11.112018 -10.666147 -11.521390
LeftToeBase 14.276980 -0.000000 -0.000000
RightUpLeg -20.226220 11.622020 -5.906697
RightLeg 95.533361 -0.000000 -0.000000
RightFoot -4.783301 2.629997 4.674689
RightToeBase -1.305473 -0.000000 0.000000
435
root 4.806235 36.903112 0.469679 3.280016 30.410386 -0.079579
Spine 3.587875 5.339641 0.782204
Head 11.444737 -10.645256 4.880417
LeftShoulder -5.199369 -9.354013 8.923967
LeftArm 3.028930 -11.107612 -51.183719
LeftForeArm 1.940923 -0.000000 99.357442
LeftHand -14.172093 -0.000000 33.001955
LeftHandThumb1 -26.253704 0.000000 33.147579
RightShoulder -9.607813 -19.886589 1.002062
RightArm 17.487808 -26.691712 57.253714
RightForeArm 184.377231 -0.000000 31.804578
RightHand 0.771987 0.000000 1.217620
RightHandThumb1 -24.326973 -0.000000 -32.862282
LeftUpLeg -3.749298 -10.394766 -3.106317
LeftLeg 6.821777 -0.000000 -0.000000
LeftFoot -11.115943 -10.713495 -11.514105
LeftToeBase 14.270013 -0.000000 -0.000000
RightUpLeg -20.183850 11.634874 -5.878381
RightLeg 95.535582 -0.000000 -0.000000
RightFoot -4.789892 2.581409 4.677028
RightToeBase -1.308207 -0.000000 0.000000
436
root 4.810959 36.904787 0.484110 3.261419 30.436633 -0.107474
Spine 3.587334 5.344756 0.754930
Head 11.411426 -10.638806 4.958064
LeftShoulder -5.201090 -9.327237 8.910528
LeftArm 3.052091 -11.097089 -51.121098
LeftForeArm 2.040312 -0.000000 99.402899
LeftHand -14.256854 -0.000000 33.170178
LeftHandThumb1 -26.253704 0.000000 33.147579
RightShoulder -9.574512 -19.880071 1.007029
RightArm 17.578463 -26.781009 57.160507
RightForeArm 184.463777 -0.000000 31.962967
RightHand 0.712864 -0.000000 1.422358
RightHandThumb1 -24.326973 -0.000000 -32.862282
LeftUpLeg -3.726376 -10.398043 -3.079232
LeftLeg 6.832947 -0.000000 -0.000000
LeftFoot -11.119627 -10.742345 -11.482740
LeftToeBase 14.182361 -0.000000 -0.000000
RightUpLeg -20.152940 11.668954 -5.868444
RightLeg 95.537505 -0.000000 -0.000000
RightFoot -4.813553 2.532006 4.737861
RightToeBase -1.080332 -0.000000 0.000000
437
root 4.815667 36.906516 0.501057 3.223835 30.483422 -0.145010
Spine 3.605670 5.338057 0.740999
Head 11.366775 -10.651590 4.997292
LeftShoulder -5.226755 -9.268072 8.962159
LeftArm 3.094131 -11.131092 -51.204385
LeftForeArm 2.091317 0.000000 99.424254
LeftHand -14.202347 -0.000000 33.128834
LeftHandThumb1 -26.253704 0.000000 33.147579
RightShoulder -9.562257 -19.877323 1.021230
RightArm 17.665042 -26.808163 57.082694
RightForeArm 184.547625 -0.000000 32.123454
RightHand 0.804087 -0.000000 1.400680
RightHandThumb1 -24.326973 -0.000000 -32.862282
LeftUpLeg -3.677782 -10.435363 -3.040772
LeftLeg 6.819049 -0.000000 -0.000000
LeftFoot -11.129643 -10.779939 -11.534853
LeftToeBase 14.240924 -0.000000 -0.000000
RightUpLeg -20.097488 11.676615 -5.838423
RightLeg 95.523564 -0.000000 -0.000000
RightFoot -4.816158 2.449459 4.743519
RightToeBase -1.093693 -0.000000 0.000000
